<?xml version="1.0" standalone="no"?>
<!DOCTYPE svg PUBLIC "-//W3C//DTD SVG 20010904//EN"
 "http://www.w3.org/TR/2001/REC-SVG-20010904/DTD/svg10.dtd">
<svg version="1.0" xmlns="http://www.w3.org/2000/svg"
 width="261.000000pt" height="86.000000pt" viewBox="0 0 261.000000 86.000000"
 preserveAspectRatio="xMidYMid meet">

<g transform="translate(0.000000,86.000000) scale(0.100000,-0.100000)"
fill="#000000" stroke="none">
<path d="M0 430 l0 -430 1305 0 1305 0 0 430 0 430 -1305 0 -1305 0 0 -430z
m2007 149 c7 -13 13 -39 13 -58 0 -27 -3 -32 -17 -27 -9 4 -43 9 -75 13 -58 6
-58 6 -58 39 0 26 4 34 18 35 9 0 33 6 52 13 44 17 52 15 67 -15z m-1546 -29
c25 -14 26 -45 2 -35 -85 35 -133 -2 -133 -100 0 -35 6 -52 25 -70 28 -29 43
-30 90 -11 30 13 35 13 35 1 0 -41 -113 -49 -156 -12 -23 20 -28 34 -32 83 -3
50 0 64 20 94 37 55 100 76 149 50z m117 -39 c3 -43 3 -43 37 -37 23 5 38 2
49 -9 14 -15 17 -31 20 -137 1 -14 -5 -23 -14 -23 -11 0 -16 16 -20 64 -4 46
-10 67 -22 75 -29 18 -52 -15 -58 -82 -4 -46 -9 -58 -24 -60 -17 -4 -18 1 -13
49 4 30 7 89 7 132 0 69 2 78 18 75 12 -2 18 -15 20 -47z m956 27 c15 -25 2
-31 -32 -14 -34 18 -69 11 -77 -15 -9 -26 0 -36 56 -65 55 -27 74 -59 59 -98
-12 -32 -39 -46 -89 -46 -52 0 -71 8 -71 31 0 23 3 23 42 3 37 -19 74 -11 84
18 7 23 -5 37 -76 81 -44 28 -53 74 -20 107 26 26 107 25 124 -2z m746 -18 c0
-5 9 -19 21 -31 l21 -21 -21 -14 c-17 -12 -21 -26 -21 -69 0 -45 3 -55 20 -60
26 -8 16 -25 -15 -25 -32 0 -45 27 -45 94 0 30 -5 58 -11 61 -7 5 -6 12 4 23
8 10 17 25 20 35 7 18 27 24 27 7z m-1416 -59 c10 -11 16 -30 14 -43 -2 -19
-12 -25 -53 -33 -32 -7 -51 -17 -53 -27 -4 -23 33 -41 69 -33 16 4 29 2 29 -3
0 -14 -25 -22 -66 -22 -47 0 -74 29 -74 81 0 76 89 130 134 80z m193 -7 c23
-36 8 -56 -50 -69 -58 -13 -65 -20 -41 -46 15 -17 26 -20 58 -15 34 6 38 5 26
-9 -17 -20 -88 -20 -112 2 -21 19 -25 100 -5 125 35 44 98 51 124 12z m171 8
c3 -10 -5 -12 -33 -6 -26 5 -40 3 -45 -7 -12 -18 -5 -26 39 -49 44 -22 55 -49
34 -79 -17 -25 -93 -30 -112 -8 -16 20 -4 26 28 14 32 -12 61 -4 61 17 0 8
-19 25 -42 38 -48 26 -58 50 -32 79 21 23 94 23 102 1z m476 12 c9 -3 16 -12
16 -20 0 -17 -1 -17 -33 -5 -38 15 -67 -11 -67 -59 0 -52 22 -74 67 -65 18 3
33 2 33 -3 0 -25 -90 -30 -114 -7 -68 69 9 193 98 159z m256 -53 c0 -32 3 -73
6 -90 6 -28 4 -31 -18 -31 -25 0 -25 0 -22 88 2 48 3 88 4 90 0 1 7 2 15 2 12
0 15 -13 15 -59z m202 42 c24 -28 30 -60 18 -97 -14 -43 -31 -58 -78 -65 -33
-6 -38 -10 -42 -41 -4 -28 -10 -36 -29 -38 -20 -3 -23 -1 -17 15 4 10 10 66
13 125 l6 107 36 4 c72 7 78 7 93 -10z m-282 -3 c0 -4 -11 -11 -25 -14 -31 -8
-47 -46 -43 -101 3 -37 1 -40 -22 -40 -17 0 -24 5 -22 15 2 8 4 45 4 81 l1 66
53 0 c30 0 54 -3 54 -7z"/>
<path d="M786 445 c-25 -25 -20 -45 12 -45 36 0 55 13 50 36 -4 25 -41 30 -62
9z"/>
<path d="M966 438 c-23 -32 -20 -38 18 -38 41 0 65 23 46 45 -18 22 -46 18
-64 -7z"/>
<path d="M2076 438 c-16 -23 -21 -73 -10 -102 9 -23 50 -19 68 6 19 27 21 89
4 106 -19 19 -45 14 -62 -10z"/>
</g>
</svg>
