<?xml version="1.0" standalone="no"?>
<!DOCTYPE svg PUBLIC "-//W3C//DTD SVG 20010904//EN"
 "http://www.w3.org/TR/2001/REC-SVG-20010904/DTD/svg10.dtd">
<svg version="1.0" xmlns="http://www.w3.org/2000/svg"
 width="512.000000pt" height="512.000000pt" viewBox="0 0 512.000000 512.000000"
 preserveAspectRatio="xMidYMid meet">

<g transform="translate(0.000000,512.000000) scale(0.100000,-0.100000)"
fill="#000000" stroke="none">
<path d="M3265 4766 c-79 -16 -131 -34 -196 -66 -94 -48 -2785 -1827 -2841
-1878 -154 -142 -235 -349 -226 -575 3 -80 9 -111 26 -144 37 -71 80 -111 160
-149 98 -47 132 -73 176 -137 139 -203 38 -471 -204 -543 -69 -20 -131 -82
-150 -147 -25 -91 3 -255 66 -383 112 -229 341 -380 609 -400 76 -6 83 -5 110
18 24 21 30 35 36 92 13 132 96 248 217 304 50 24 70 27 157 27 89 0 106 -3
157 -28 117 -57 201 -178 214 -306 12 -113 -15 -106 405 -109 386 -3 407 -1
428 44 16 35 14 48 -10 78 l-20 26 -326 2 -327 3 -12 49 c-47 183 -208 345
-384 385 -68 16 -209 13 -271 -5 -176 -52 -313 -189 -364 -366 -19 -66 -23
-68 -119 -43 -99 26 -189 80 -263 159 -86 91 -130 179 -152 303 -15 89 -15 93
4 118 11 15 42 34 70 43 247 83 393 349 330 597 -38 148 -141 274 -277 339
-86 41 -124 79 -134 133 -8 43 2 183 16 236 l11 37 1499 0 1500 0 0 -25 c0
-33 40 -142 75 -201 40 -69 149 -173 222 -212 131 -69 286 -88 425 -53 148 38
261 119 347 246 46 70 91 180 91 226 0 18 13 19 315 19 l315 0 0 -722 c0 -454
-4 -747 -11 -787 -10 -65 -37 -138 -73 -200 l-19 -34 -21 94 c-52 230 -191
412 -397 519 -113 59 -210 82 -344 83 -226 0 -404 -78 -563 -248 -80 -86 -149
-212 -179 -325 -18 -71 -24 -243 -10 -322 l8 -48 -350 0 c-338 0 -352 -1 -371
-20 -25 -25 -26 -71 -1 -101 l19 -24 924 0 c1035 0 974 -4 1133 75 148 73 256
180 328 325 74 149 71 102 75 970 4 844 2 873 -49 1005 -41 106 -636 1050
-673 1068 -56 28 -124 -36 -99 -91 6 -12 141 -229 301 -483 286 -455 313 -500
332 -549 l10 -25 -298 0 -298 0 -11 55 c-40 187 -202 363 -394 426 -105 34
-253 34 -359 -1 -190 -62 -354 -238 -392 -421 l-12 -59 -1453 0 -1453 0 16 24
c28 45 94 90 753 525 l653 431 48 -43 c60 -54 166 -110 246 -131 78 -20 212
-21 289 -1 206 53 381 231 430 437 25 108 13 260 -29 368 -5 11 56 56 230 169
279 181 331 203 484 204 108 0 182 -17 275 -66 104 -55 176 -139 324 -375 73
-116 142 -219 154 -227 30 -21 52 -19 83 8 47 41 38 64 -115 308 -120 191
-154 236 -225 305 -91 88 -198 149 -313 178 -89 23 -225 28 -308 12z m-705
-674 c52 -261 -159 -512 -430 -512 -98 0 -227 48 -278 103 l-24 25 274 181
c150 99 307 202 348 230 41 27 80 48 85 47 6 -1 17 -35 25 -74z m1276 -1103
c89 -16 162 -55 230 -123 70 -70 108 -143 124 -239 50 -284 -215 -549 -498
-498 -96 17 -163 51 -232 117 -177 169 -184 436 -15 613 61 64 141 109 225
127 72 16 94 16 166 3z m409 -1724 c224 -57 401 -237 450 -458 9 -42 15 -104
13 -147 l-3 -74 -40 -23 c-22 -13 -69 -33 -105 -45 -63 -21 -83 -22 -551 -26
l-487 -4 -12 53 c-17 69 -17 200 0 269 53 223 230 401 449 455 76 18 214 18
286 0z"/>
<path d="M1993 1841 c-145 -54 -249 -180 -275 -333 -29 -179 70 -361 239 -440
87 -41 210 -50 294 -23 308 99 399 480 168 700 -86 82 -150 109 -274 112 -79
3 -111 -1 -152 -16z m228 -146 c90 -32 149 -104 171 -206 22 -105 -34 -219
-133 -274 -47 -26 -64 -30 -129 -30 -57 0 -85 6 -115 22 -88 47 -144 138 -145
232 0 76 17 125 64 178 74 84 184 114 287 78z"/>
</g>
</svg>
